<svg width="510" height="74" fill="none" xmlns="http://www.w3.org/2000/svg"><path d="M2.406 68.813c-.187.062-.312 0-.375-.188a1.77 1.77 0 01-.094-.563c.063-.187.157-.343.282-.468.187-.125.406-.125.656 0-.813-1-1.344-1.906-1.594-2.719-.187-.813-.593-1.813-1.218-3 .187-.188.312-.438.374-.75a4.97 4.97 0 01.282-1.031c.062-.313.156-.532.281-.657.188-.187.406-.156.656.094-.125-.687-.125-1.25 0-1.687.125-.438.25-.844.375-1.219.188-.375.313-.75.375-1.125.063-.375-.031-.813-.281-1.313 1.188-1.624 1.969-3.374 2.344-5.25.375-1.937.593-3.687.656-5.25.563-.562 1.031-1.312 1.406-2.25.438-.937.75-1.906.938-2.906.187-1 .281-1.968.281-2.906 0-1-.125-1.781-.375-2.344.063-.25.188-.375.375-.375a1.92 1.92 0 01.844 0c.437-2.5.719-5.281.844-8.343.187-3.063.5-6 .937-8.813.5-2.875 1.281-5.375 2.344-7.5 1.062-2.188 2.75-3.594 5.062-4.219.438 1.563 1 2.938 1.688 4.125a67.334 67.334 0 002.343 3.469L24.438 15a27.692 27.692 0 012.438 3.75c-.063 1.438-.219 3.094-.469 4.969a63.143 63.143 0 01-.843 5.718 129.74 129.74 0 01-1.032 5.625c-.312 1.813-.625 3.344-.937 4.594.062.313.281.532.656.657.375.062.438.406.188 1.03 1.812-.437 3.687-.843 5.625-1.218 2-.438 3.937-.844 5.812-1.219a73.768 73.768 0 005.625-1.5 32.772 32.772 0 005.25-2.062c.375-3 .844-5.969 1.406-8.907a26.61 26.61 0 00.188-8.906 4.09 4.09 0 00.937-1.125c.25-.437.625-.718 1.125-.843a15.309 15.309 0 01-.468-4.5c.062-1.626.312-3.126.75-4.5C51.188 5.188 51.906 4 52.843 3A6.415 6.415 0 0156.312.937a25.409 25.409 0 012.157 3.844c.625 1.375 1.25 2.782 1.875 4.219a57.789 57.789 0 001.968 3.938 11.479 11.479 0 002.813 3.187 235.922 235.922 0 01.75 13.781 113.445 113.445 0 01-1.969 8.25c-.687 2.625-1.187 5.438-1.5 8.438-.5.562-.906 1.25-1.218 2.062-.313.75-.626 1.532-.938 2.344-.25.75-.563 1.5-.938 2.25-.374.75-.843 1.375-1.406 1.875.25.875.282 1.719.094 2.531-.125.75.094 1.657.656 2.719.125 1.938-.125 3.563-.75 4.875a9.584 9.584 0 01-2.437 3.281c-1 .875-2.188 1.594-3.563 2.156-1.312.5-2.625.97-3.937 1.407a44.323 44.323 0 01-1.782-1.125c-.5-.438-1.124-.75-1.874-.938l.468-.844A27.41 27.41 0 0141.5 65.25c-.875-1.438-1.281-3.063-1.219-4.875 0-.063.063-.469.188-1.219.125-.812.25-1.656.375-2.531a54.43 54.43 0 00.468-2.438c.188-.812.282-1.25.282-1.312-1.75.188-3.563.594-5.438 1.219a59.55 59.55 0 00-5.531 2.156 52.449 52.449 0 00-4.969 2.438c-1.5.812-2.718 1.5-3.656 2.062 0 .188-.156.719-.469 1.594a43.747 43.747 0 01-1.125 2.812 14.221 14.221 0 01-1.5 2.531c-.5.75-1.031 1.094-1.593 1.032.125.312.25.562.375.75.125.125.125.406 0 .844a13.528 13.528 0 00-2.907 1.218c-.812.5-1.656.906-2.531 1.219-.875.375-1.844.531-2.906.469-1 0-2.219-.375-3.656-1.125 0-.438-.188-.813-.563-1.125a5.77 5.77 0 00-1.219-.938 25.9 25.9 0 00-1.031-.656c-.313-.188-.469-.375-.469-.563zM120.062 19.219c.063.437.063.781 0 1.031 0 .188-.031.375-.093.563v.656c0 .187.062.5.187.937-1.312 2.125-2.844 3.594-4.594 4.407-1.687.75-3.531 1.312-5.531 1.687-2 .313-4.062.656-6.187 1.031-2.063.375-4.125 1.188-6.188 2.438-.812-.313-1.562-.313-2.25 0-.625.312-1.562.406-2.812.281a3.532 3.532 0 01-1.406.844c-.563.125-1.126.281-1.688.468.25.563.344 1.157.281 1.782 0 .562.094 1.031.281 1.406 2.188.188 4.594.156 7.22-.094 2.687-.25 5.312-.406 7.874-.468.063.312.032.53-.094.656-.124.062-.156.218-.093.468.437.313.875.72 1.312 1.22l1.313 1.312c.437.437.875.812 1.312 1.125.5.25 1.063.343 1.688.281a4.8 4.8 0 01.468 1.688c.126.562.063 1.156-.187 1.78-1 .688-2 1.407-3 2.157-1 .688-2.063 1.313-3.187 1.875a19.178 19.178 0 01-3.469 1.406c-1.188.313-2.531.438-4.031.375h-.75c-.126 0-.313-.093-.563-.281-.5.313-1.219.406-2.156.281-.875-.125-1.563-.031-2.063.282-.687-.313-1.531-.438-2.531-.376-.938 0-1.781-.124-2.531-.374a32.443 32.443 0 00-2.719 4.218 37.015 37.015 0 00-2.156 4.782c2.125.312 3.875.437 5.25.374a72.129 72.129 0 004.031-.28 71.902 71.902 0 013.844-.47c1.312-.187 2.969-.25 4.969-.187 1.249-.688 2.718-1.125 4.406-1.313 1.75-.25 3.343-.624 4.781-1.124.5.187.938.53 1.312 1.03.376.438.719.876 1.032 1.313.375.375.75.719 1.125 1.032.375.312.843.437 1.406.374.25.25.406.563.469.938.125.313.218.625.281.938.063.312.156.593.281.843.188.188.469.25.844.188-.938 2.062-2.031 3.656-3.281 4.781a12.443 12.443 0 01-4.125 2.438c-1.563.562-3.313 1-5.25 1.312-1.875.313-3.969.688-6.281 1.125-.563.125-1.032.094-1.407-.094a4.154 4.154 0 00-1.312-.187c-1.438.312-3.156.594-5.156.844-2 .25-4.032.343-6.094.28a25.9 25.9 0 01-5.906-.843c-1.876-.438-3.407-1.25-4.594-2.438-.5-.437-.844-.937-1.031-1.5-.126-.624-.532-1.093-1.22-1.406a25.56 25.56 0 00-.374-2.719c-.188-1-.375-2.03-.563-3.093a69.175 69.175 0 01-.469-3.282c-.062-1.062 0-2.03.188-2.906A6.185 6.185 0 0170 52.5c.625-.75.844-1.563.656-2.438.313-.062.5-.218.563-.468.062-.313.312-.438.75-.375a37.686 37.686 0 011.219-3.188c.437-1 .874-1.968 1.312-2.906.5-.938.969-1.875 1.406-2.813.5-1 .969-2.093 1.406-3.28-.874-.813-1.53-1.688-1.968-2.626-.375-1-.656-1.968-.844-2.906-.188-1-.344-2-.469-3a19.256 19.256 0 00-.656-3.188c.625-.937 1.375-1.687 2.25-2.25a13.469 13.469 0 013-1.5 25.385 25.385 0 013.469-.937c1.25-.25 2.562-.531 3.937-.844 2.5-.812 4.719-1.437 6.656-1.875 2-.437 3.938-.781 5.813-1.031 1.938-.313 3.938-.594 6-.844s4.406-.625 7.031-1.125c.563.563 1.094.844 1.594.844.25-.563.531-.719.844-.469.375.188.531 0 .469-.562a9.818 9.818 0 002.343 2.719c1 .687 2.094 1.28 3.281 1.78zM164.031 46.688c-.062.312-.125.593-.187.843l-.188.563c-.062.187-.094.437-.094.75v1.031c-1.874 3.313-4.25 6.094-7.124 8.344-2.813 2.25-5.938 4.25-9.376 6a125.945 125.945 0 01-10.593 4.687 150.134 150.134 0 00-10.781 4.5c-1.5-.375-2.657-1-3.469-1.875a10.299 10.299 0 01-1.781-3 22.985 22.985 0 01-.844-3.844c-.125-1.437-.25-2.906-.375-4.406.187-.687.437-1.25.75-1.687.375-.5.562-1.188.562-2.063.5-1.625 1-3.218 1.5-4.781.5-1.563.813-3.156.938-4.781.187-.5.531-.844 1.031-1.032.312-3 .312-6.03 0-9.093-.25-3.125-.75-6.032-1.5-8.719.062-.625.125-1.063.188-1.313.124-.312.124-.53 0-.656-.063-.5.093-.75.468-.75h1.313c0-.937-.188-1.875-.563-2.812-.312-.938-.625-2-.937-3.188.437-.937.719-1.843.843-2.718.126-.938.407-1.75.844-2.438a69.034 69.034 0 019.656 3.844c3.126 1.5 6.188 2.593 9.188 3.281 2.25 1.625 4.562 3.25 6.938 4.875a40.932 40.932 0 016.468 5.25 26.238 26.238 0 014.875 6.469c1.313 2.437 2.063 5.343 2.25 8.718zm-22.219 5.156a70.523 70.523 0 003.844-1.594 23.82 23.82 0 003.563-1.875 16.923 16.923 0 003-2.531c.875-.938 1.593-2.063 2.156-3.375a6.593 6.593 0 00-1.5-1.969A22.832 22.832 0 00151 38.812l-1.875-1.687c-.563-.563-1.031-1.25-1.406-2.063-.813-.124-1.531-.343-2.157-.656a27.859 27.859 0 00-1.874-1.031 13.286 13.286 0 00-1.876-1.031c-.624-.313-1.374-.5-2.25-.563-1.374-.687-2.624-1.187-3.75-1.5-1.062-.312-1.874-.718-2.437-1.218-.437 0-.781.093-1.031.28a62.013 62.013 0 011.406 6.75c.312 2.063.469 4.157.469 6.282a44.375 44.375 0 01-.281 6.375c-.25 2.188-.594 4.563-1.032 7.125a6.7 6.7 0 001.688-.375c.562-.25 1.094-.5 1.594-.75.562-.25 1.124-.469 1.687-.656.625-.25 1.344-.407 2.156-.469a2.78 2.78 0 01.75-.938c.375-.25.719-.53 1.031-.843zM232 55.125c-1.5 2.688-3.469 4.781-5.906 6.281-2.438 1.438-5.125 2.657-8.063 3.657a117.185 117.185 0 01-9.281 2.53 66.646 66.646 0 00-9.281 2.907c-.875 0-1.657.031-2.344.094-.625.062-1.25.156-1.875.281-.562.063-1.125.156-1.688.281a94.73 94.73 0 01-1.874.188c-.25-.063-.407 0-.469.187-.063.125-.157.25-.281.375-1.063.188-2.032.281-2.907.281h-2.062c-.75 0-1.531.094-2.344.282-.75.25-1.437.344-2.063.281-4.687-.25-8.374-1.906-11.062-4.969-2.625-3.125-4.094-7.437-4.406-12.937.062-.313 0-.5-.188-.563a1.466 1.466 0 01-.375-.281c0-.625.063-1.156.188-1.594.187-.437.219-1 .093-1.687 1.626-3.438 3.469-6.625 5.532-9.563 2.062-3 4.531-5.625 7.406-7.875.438-.375.812-.75 1.125-1.125.313-.375.594-.75.844-1.125a4.822 4.822 0 011.031-.937c.375-.313.844-.532 1.406-.657 1.313-1.5 2.875-2.875 4.688-4.125a73.648 73.648 0 015.718-3.562c2-1.188 3.969-2.344 5.907-3.469 2-1.187 3.812-2.5 5.437-3.937.688.312 1.188.406 1.5.281.313-.125.656-.125 1.032 0 .437.938 1.031 1.594 1.781 1.969.812.375 1.593.781 2.343 1.218.813.375 1.563.844 2.25 1.407.688.562 1.219 1.312 1.594 2.25-.375 0-.562.156-.562.468.062.25.156.532.281.844.125.25.156.532.094.844 0 .25-.219.375-.657.375.063.313.25.5.563.563.375 0 .563.156.563.468 0 .313-.094.563-.282.75-.125.188-.125.5 0 .938a37.647 37.647 0 01-4.218 2.343c-1.5.75-3.094 1.563-4.782 2.438a143.894 143.894 0 00-5.156 2.719 41.89 41.89 0 00-5.156 3.281 72.978 72.978 0 00-5.156 4.219 72.807 72.807 0 00-5.063 4.781 72.773 72.773 0 00-4.594 5.25c-1.437 1.75-2.656 3.5-3.656 5.25.125.313.25.563.375.75.188.125.344.344.469.656 2 .125 3.843.125 5.531 0 1.75-.187 3.5-.093 5.25.282a.91.91 0 00.375-.563.84.84 0 01.469-.563c3.562-.374 6.875-.937 9.937-1.687 3.063-.813 6.188-1.656 9.375-2.531-.5-.188-.968-.344-1.406-.469a8.591 8.591 0 00-1.125-.469c-.313-.312-.313-.562 0-.75.375-.25.687-.5.937-.75a7 7 0 01-2.156-1.875c-.5-.75-.812-1.75-.937-3 .375-.312.562-.687.562-1.125 0-.437-.187-.781-.562-1.031-.25-.063-.407-.063-.469 0a1.116 1.116 0 00-.188.281c0 .125-.031.25-.093.375-.063.063-.219.032-.469-.093.062-.563.188-1.032.375-1.407a4.19 4.19 0 00.563-1.312l6.468-4.313c.688.5 1.532 1.063 2.532 1.688 1 .562 2.031 1.156 3.093 1.781a87.832 87.832 0 013.375 1.781 52.762 52.762 0 013.282 1.688 8.344 8.344 0 012.343 1.5 29.138 29.138 0 011.969 1.968l1.875 1.876a10.314 10.314 0 002.344 1.593c-.125.813-.094 1.469.093 1.969.188.5.25 1.125.188 1.875z" fill="#000"/><path d="M280.469 19.219c.062.437.062.781 0 1.031 0 .188-.031.375-.094.563v.656c0 .187.063.5.187.937-1.312 2.125-2.843 3.594-4.593 4.407-1.688.75-3.531 1.312-5.531 1.687-2 .313-4.063.656-6.188 1.031-2.062.375-4.125 1.188-6.188 2.438-.812-.313-1.562-.313-2.25 0-.624.312-1.562.406-2.812.281a3.534 3.534 0 01-1.406.844c-.563.125-1.125.281-1.688.468a3.47 3.47 0 01.282 1.782c0 .562.093 1.031.281 1.406 2.187.188 4.593.156 7.219-.094 2.687-.25 5.312-.406 7.874-.468.063.312.032.53-.093.656-.125.062-.157.218-.094.468.437.313.875.72 1.313 1.22L268 39.843c.438.437.875.812 1.312 1.125.5.25 1.063.343 1.688.281.25.5.406 1.063.469 1.688.125.562.062 1.156-.188 1.78-1 .688-2 1.407-3 2.157-1 .688-2.062 1.313-3.187 1.875a19.178 19.178 0 01-3.469 1.406c-1.187.313-2.531.438-4.031.375h-.75c-.125 0-.313-.093-.563-.281-.5.313-1.219.406-2.156.281-.875-.125-1.563-.031-2.063.282-.687-.313-1.531-.438-2.531-.376-.937 0-1.781-.124-2.531-.374a32.497 32.497 0 00-2.719 4.218 37.082 37.082 0 00-2.156 4.782c2.125.312 3.875.437 5.25.374a72.148 72.148 0 004.031-.28 71.985 71.985 0 013.844-.47c1.312-.187 2.969-.25 4.969-.187 1.25-.688 2.719-1.125 4.406-1.313 1.75-.25 3.344-.624 4.781-1.124.5.187.938.53 1.313 1.03.375.438.719.876 1.031 1.313.375.375.75.719 1.125 1.032.375.312.844.437 1.406.374.25.25.407.563.469.938.125.313.219.625.281.938.063.312.157.593.281.843.188.188.469.25.844.188-.937 2.062-2.031 3.656-3.281 4.781a12.433 12.433 0 01-4.125 2.438c-1.562.562-3.312 1-5.25 1.312-1.875.313-3.969.688-6.281 1.125-.563.125-1.031.094-1.407-.094-.374-.125-.812-.187-1.312-.187-1.438.312-3.156.594-5.156.844-2 .25-4.032.343-6.094.28a25.903 25.903 0 01-5.906-.843c-1.875-.438-3.406-1.25-4.594-2.438-.5-.437-.844-.937-1.031-1.5-.125-.624-.531-1.093-1.219-1.406a25.508 25.508 0 00-.375-2.719c-.187-1-.375-2.03-.563-3.093a69.672 69.672 0 01-.468-3.282c-.063-1.062 0-2.03.187-2.906a6.199 6.199 0 011.125-2.531c.625-.75.844-1.563.656-2.438.313-.062.5-.218.563-.468.063-.313.313-.438.75-.375a37.516 37.516 0 011.219-3.188c.437-1 .875-1.968 1.312-2.906.5-.938.969-1.875 1.406-2.813.5-1 .969-2.093 1.407-3.28-.875-.813-1.531-1.688-1.969-2.626-.375-1-.656-1.968-.844-2.906-.187-1-.344-2-.468-3a19.31 19.31 0 00-.657-3.188c.625-.937 1.375-1.687 2.25-2.25a13.49 13.49 0 013-1.5 25.408 25.408 0 013.469-.937c1.25-.25 2.562-.531 3.938-.844 2.5-.812 4.718-1.437 6.656-1.875 2-.437 3.937-.781 5.812-1.031 1.938-.313 3.938-.594 6-.844 2.063-.25 4.406-.625 7.032-1.125.562.563 1.093.844 1.593.844.25-.563.531-.719.844-.469.375.188.531 0 .469-.562a9.82 9.82 0 002.344 2.719 18.3 18.3 0 003.281 1.78zM326.219 62.906c.125 1.625-.063 2.969-.563 4.032a8.05 8.05 0 01-2.062 2.718 10.31 10.31 0 01-3 1.781 110.37 110.37 0 01-3.282 1.22l-1.5-.938c-.437-.375-.968-.656-1.593-.844a50.69 50.69 0 00-2.344-3.938c-.75-1.187-1.094-2.53-1.031-4.03 0-.063.031-.407.094-1.032.124-.625.25-1.313.374-2.063.188-.75.313-1.437.376-2.062.124-.688.187-1.063.187-1.125-1.437.125-2.937.438-4.5.938a40.973 40.973 0 00-4.594 1.78 127.821 127.821 0 00-4.125 2.063 75.866 75.866 0 00-3.094 1.782c0 .187-.124.656-.374 1.406-.25.687-.563 1.437-.938 2.25-.375.75-.781 1.437-1.219 2.062-.437.625-.875.938-1.312.938.062.187.156.375.281.562.125.188.125.438 0 .75a11.47 11.47 0 00-2.344.938 9.738 9.738 0 01-2.156 1.031 6.273 6.273 0 01-2.438.469c-.874 0-1.906-.313-3.093-.938 0-.375-.157-.687-.469-.937a3.943 3.943 0 00-1.031-.75 4.938 4.938 0 00-.844-.563c-.25-.187-.375-.344-.375-.469-.312.063-.438-.156-.375-.656s.313-.625.75-.375c-.687-.875-1.125-1.625-1.313-2.25-.124-.687-.468-1.531-1.031-2.531.125-.125.25-.344.375-.656.063-.313.125-.594.188-.844.062-.25.156-.438.281-.563.125-.124.281-.093.469.094-.125-.562-.125-1.031 0-1.406s.25-.719.375-1.031c.125-.313.219-.625.281-.938.062-.312-.031-.656-.281-1.031 1-1.375 1.656-2.844 1.969-4.406.312-1.625.5-3.094.562-4.407.438-.437.812-1.062 1.125-1.874a12.58 12.58 0 00.844-2.438c.187-.875.25-1.688.187-2.438 0-.812-.094-1.468-.281-1.968.063-.313.406-.407 1.031-.282.375-2.062.625-4.374.75-6.937.188-2.625.469-5.094.844-7.406.375-2.375 1-4.438 1.875-6.188.875-1.812 2.281-3 4.219-3.562.375 1.312.844 2.469 1.406 3.469.625 1 1.281 1.968 1.969 2.906a45.52 45.52 0 012.156 2.718c.75.938 1.437 2 2.063 3.188a62.943 62.943 0 01-.376 4.125 68.025 68.025 0 01-.75 4.781 90.929 90.929 0 01-.843 4.688c-.25 1.5-.5 2.781-.75 3.843.062.313.219.5.469.563.312.063.374.344.187.844 1.5-.375 3.063-.719 4.687-1.032 1.626-.312 3.25-.656 4.876-1.03a85.255 85.255 0 004.687-1.22c1.563-.5 3-1.093 4.313-1.78a98.814 98.814 0 011.218-7.313c.5-2.438.563-4.938.188-7.5a2.78 2.78 0 00.75-.938c.187-.375.5-.625.937-.75a12.378 12.378 0 01-.375-3.75c.063-1.312.282-2.562.656-3.75.438-1.187 1.032-2.187 1.782-3 .812-.875 1.781-1.437 2.906-1.687.688 1 1.281 2.094 1.781 3.281.5 1.125 1 2.281 1.5 3.469a158.724 158.724 0 001.688 3.281c.625 1 1.406 1.875 2.343 2.625.188 1.813.313 3.688.376 5.625.124 1.938.218 3.906.281 5.906a112.55 112.55 0 01-1.688 6.938c-.562 2.187-.969 4.531-1.219 7.031a5.842 5.842 0 00-1.031 1.688c-.25.624-.5 1.28-.75 1.968-.25.625-.531 1.25-.843 1.875a6.728 6.728 0 01-1.126 1.5c.25.75.282 1.469.094 2.157-.125.624.063 1.406.563 2.343zM388.75 43.875c-.062.75 0 1.469.188 2.156.187.688.406 1.375.656 2.063.312.625.594 1.281.844 1.968.25.688.437 1.376.562 2.063.125.875.125 1.844 0 2.906-.125 1-.344 2-.656 3a12.6 12.6 0 01-1.219 2.625c-.5.75-1.094 1.313-1.781 1.688a9.222 9.222 0 01-3.188 2.625 18.313 18.313 0 00-3.468 2.25 7.097 7.097 0 01-2.344.937c-.813.188-1.656.375-2.532.563-.687.375-1.5.781-2.437 1.219-.937.374-1.906.75-2.906 1.124-1 .313-2 .563-3 .75-1 .126-1.875.157-2.625.094-1.875.688-3.719 1.125-5.532 1.313-1.75.25-3.812.125-6.187-.375-2.25.312-4.344.219-6.281-.281-1.875-.5-3.563-1.282-5.063-2.344a20.857 20.857 0 01-3.843-3.938 26.31 26.31 0 01-2.626-4.875c-.5-3.562-.374-6.781.376-9.656.75-2.938 1.812-5.625 3.187-8.063a42.174 42.174 0 014.875-6.843c1.812-2.125 3.562-4.188 5.25-6.188.375.125.656.125.844 0 .25-.187.468-.406.656-.656.188-.313.375-.594.562-.844.25-.25.532-.406.844-.468.438-.938 1.063-1.625 1.875-2.063a5.448 5.448 0 002.063-2.063c.562-.125 1.031-.312 1.406-.562.375-.25.719-.531 1.031-.844.375-.312.75-.593 1.125-.843a3.253 3.253 0 011.313-.657v-1.031c1.125-.5 1.937-1.063 2.437-1.688.563-.687 1.219-1.5 1.969-2.437.563-.063 1-.094 1.313-.094.374 0 .906-.062 1.593-.187.5-.875.938-1.532 1.313-1.969.437-.438 1.062-.906 1.875-1.406a7.91 7.91 0 002.437.75c.938.125 1.75.531 2.438 1.219.062.624.25 1.124.562 1.5.313.312.656.625 1.032.937.374.25.718.531 1.031.844.375.312.625.75.75 1.312.25.063.406.032.469-.093.124-.125.312-.157.562-.094.188.875.406 1.468.656 1.781.25.25.5.781.75 1.594a10.736 10.736 0 00-.75 1.968c-.125.625-.5 1.094-1.125 1.407-.062.437.063.687.375.75.313 0 .5.156.563.468.062.563-.031.97-.281 1.22a60.915 60.915 0 014.031 7.78 63.93 63.93 0 004.031 7.688zm-11.719 8.906c.25-.687.563-1.25.938-1.687.437-.438.687-1.094.75-1.969-.313-.5-.5-.875-.563-1.125-.062-.313-.094-.781-.094-1.406a37.939 37.939 0 01-3.562-6.188c-1-2.25-2.125-4.343-3.375-6.281-.125.25-.344.5-.656.75-.313.25-.657.188-1.031-.188-.126.5-.344.876-.657 1.126a1.965 1.965 0 01-1.031.28 11.172 11.172 0 01-1.219-.28 5.768 5.768 0 01-1.031-.657 315.34 315.34 0 01-5.438 4.219 27.138 27.138 0 00-4.874 4.781c-.25.125-.407.188-.469.188-.063-.063-.25-.032-.563.093a15.41 15.41 0 01-1.875 3.282c-.687.937-1.375 1.906-2.062 2.906-.688 1-1.281 2.063-1.781 3.188-.5 1.124-.782 2.437-.844 3.937 1.062.875 2.312 1.406 3.75 1.594 1.437.187 2.906.218 4.406.093a49.184 49.184 0 004.5-.562c1.5-.313 2.875-.469 4.125-.469 2.625-.625 4.875-1.437 6.75-2.437a169.001 169.001 0 015.906-3.188zM460.938 55.125c-1.5 2.688-3.469 4.781-5.907 6.281-2.437 1.438-5.125 2.657-8.062 3.657a117.303 117.303 0 01-9.281 2.53 66.659 66.659 0 00-9.282 2.907c-.875 0-1.656.031-2.344.094-.624.062-1.25.156-1.874.281-.563.063-1.126.156-1.688.281a94.88 94.88 0 01-1.875.188c-.25-.063-.406 0-.469.187-.062.125-.156.25-.281.375-1.063.188-2.031.281-2.906.281h-2.063c-.75 0-1.531.094-2.344.282-.75.25-1.437.344-2.062.281-4.688-.25-8.375-1.906-11.062-4.969-2.626-3.125-4.094-7.437-4.407-12.937.063-.313 0-.5-.187-.563a1.466 1.466 0 01-.375-.281c0-.625.062-1.156.187-1.594.188-.437.219-1 .094-1.687 1.625-3.438 3.469-6.625 5.531-9.563 2.063-3 4.531-5.625 7.407-7.875.437-.375.812-.75 1.124-1.125.313-.375.594-.75.844-1.125a4.827 4.827 0 011.032-.937c.374-.313.843-.532 1.406-.657 1.312-1.5 2.875-2.875 4.687-4.125a73.86 73.86 0 015.719-3.562c2-1.188 3.969-2.344 5.906-3.469 2-1.187 3.813-2.5 5.438-3.937.687.312 1.187.406 1.5.281.312-.125.656-.125 1.031 0 .437.938 1.031 1.594 1.781 1.969.813.375 1.594.781 2.344 1.218.812.375 1.562.844 2.25 1.407.688.562 1.219 1.312 1.594 2.25-.375 0-.563.156-.563.468.063.25.157.532.281.844.126.25.157.532.094.844 0 .25-.218.375-.656.375.062.313.25.5.562.563.376 0 .563.156.563.468 0 .313-.094.563-.281.75-.125.188-.125.5 0 .938a37.576 37.576 0 01-4.219 2.343c-1.5.75-3.094 1.563-4.781 2.438a143.894 143.894 0 00-5.156 2.719 41.975 41.975 0 00-5.157 3.281 73.206 73.206 0 00-5.156 4.219 73.032 73.032 0 00-9.656 10.031c-1.438 1.75-2.657 3.5-3.657 5.25.126.313.25.563.376.75.187.125.343.344.468.656 2 .125 3.844.125 5.532 0 1.75-.187 3.5-.093 5.25.282a.909.909 0 00.374-.563.84.84 0 01.469-.563c3.563-.374 6.875-.937 9.938-1.687 3.062-.813 6.187-1.656 9.375-2.531-.5-.188-.969-.344-1.406-.469a8.603 8.603 0 00-1.126-.469c-.312-.312-.312-.562 0-.75.376-.25.688-.5.938-.75a6.978 6.978 0 01-2.156-1.875c-.5-.75-.813-1.75-.938-3 .375-.312.563-.687.563-1.125 0-.437-.188-.781-.563-1.031-.25-.063-.406-.063-.468 0a1.065 1.065 0 00-.188.281c0 .125-.031.25-.094.375-.062.063-.218.032-.468-.093.062-.563.187-1.032.374-1.407.25-.375.438-.812.563-1.312l6.469-4.313c.687.5 1.531 1.063 2.531 1.688 1 .562 2.031 1.156 3.094 1.781a87.832 87.832 0 013.375 1.781 53.007 53.007 0 013.281 1.688 8.349 8.349 0 012.344 1.5 29.609 29.609 0 011.969 1.968l1.874 1.876a10.336 10.336 0 002.344 1.593c-.125.813-.094 1.469.094 1.969s.25 1.125.188 1.875z" fill="#000"/><path d="M455.688 29.813c.437-1.313 1.124-2.438 2.062-3.375 1-.938 2.062-1.72 3.188-2.344a21.376 21.376 0 013.656-1.688 57.127 57.127 0 013.562-1.125c2.5-1.062 5.156-2.062 7.969-3 2.875-1 5.781-1.875 8.719-2.625 3-.75 6.062-1.219 9.187-1.406 3.125-.25 6.407.125 9.844 1.125a6.62 6.62 0 00.844 1.781l1.125 1.688c.437.562.812 1.125 1.125 1.687.312.5.5 1.032.562 1.594a7.08 7.08 0 011.5 1.875c.375.625.438 1.469.188 2.531-.625.5-1.25.969-1.875 1.407a13.35 13.35 0 01-1.875 1.03 22.18 22.18 0 00-7.031-.562c-2.376.188-4.5.344-6.376.469-.562-.563-1.25-.844-2.062-.844-.75 0-1.562.125-2.438.375-.812.25-1.656.5-2.531.75-.812.25-1.593.313-2.343.188-.626.5-1.407.843-2.344 1.031-.875.125-1.844.25-2.906.375-.063.313 0 .531.187.656.187.063.219.25.094.563.375.437.843.75 1.406.937l1.875.563c.688.187 1.281.437 1.781.75.5.25.844.687 1.031 1.312.938 0 1.75.219 2.438.657a5.89 5.89 0 011.688 1.593c.437.625.75 1.313.937 2.063.25.687.375 1.312.375 1.875.188.5.406.718.656.656.25-.063.532.063.844.375.188.813.656 1.656 1.406 2.531A9.754 9.754 0 01493.938 48c.124 1.563.218 2.969.281 4.219.062 1.187-.157 2.406-.657 3.656a20.063 20.063 0 01-3.937 6.188A30.344 30.344 0 01484 66.936a39.804 39.804 0 01-6.656 3.563 72.494 72.494 0 01-6.938 2.531c-.25-.062-.5-.062-.75 0-.25.063-.312-.094-.187-.469-.5.438-1.063.72-1.688.844-.562.125-1.187.156-1.875.094-.687 0-1.406-.031-2.156-.094a6.843 6.843 0 00-1.969.094 23.93 23.93 0 01-1.219-1.313c-.312-.374-.562-.874-.75-1.5-.312 0-.468-.156-.468-.468.062-.313-.032-.469-.282-.469.376-.625.532-.969.469-1.031 0-.125-.093-.219-.281-.281l-.375-.188c-.125-.125-.156-.281-.094-.469.25-.5.344-1.062.281-1.687l-.187-2.063a6.82 6.82 0 01.094-1.969c.187-.624.656-1.124 1.406-1.5 2.125.25 4.125.188 6-.187a29.172 29.172 0 005.437-1.781 48.835 48.835 0 004.782-2.438 63.854 63.854 0 014.594-2.343c.187-.563.437-1.032.75-1.407.374-.375.75-.718 1.124-1.031a8.011 8.011 0 001.032-1.031c.312-.375.531-.844.656-1.407.062-.437-.062-.687-.375-.75-.25-.124-.375-.374-.375-.75l-1.031-.28c-1.188-.688-2.531-1.25-4.031-1.688-1.5-.5-2.782-1.032-3.844-1.594-.688.375-1.344.469-1.969.281-.563-.187-1.313-.375-2.25-.562a64.66 64.66 0 01-6.187-.657 22.433 22.433 0 01-5.626-1.687 3.648 3.648 0 00-.468-.844c-.188-.25-.532-.312-1.032-.187-.374-.5-.75-.969-1.124-1.407a13.86 13.86 0 01-1.032-1.593c.125-.75.219-1.375.282-1.875.062-.563-.126-1.094-.563-1.594.25-.813.437-1.469.563-1.969.124-.5.124-1.156 0-1.968z" fill="#000"/></svg>