<svg width="457" height="77" fill="none" xmlns="http://www.w3.org/2000/svg"><path d="M1.219 28.719c.187-.938.312-1.688.375-2.25.062-.625-.157-1.282-.657-1.969.25-1 .438-1.781.563-2.344.188-.562.219-1.343.094-2.343.562-1.625 1.406-3 2.531-4.125a18.368 18.368 0 013.844-2.813 22.345 22.345 0 014.312-1.969A55.52 55.52 0 0116.5 9.5c0-.25-.125-.375-.375-.375s-.313-.156-.188-.469a67.532 67.532 0 0010.126-2.719 145.72 145.72 0 0110.5-3.187A53.474 53.474 0 0147.53 1.062c3.75-.25 7.688.22 11.813 1.407.25.75.593 1.468 1.031 2.156l1.313 2.062c.5.625.937 1.25 1.312 1.875s.594 1.282.656 1.97a8.565 8.565 0 011.782 2.25c.5.75.593 1.78.28 3.093-.687.5-1.406 1-2.156 1.5-.75.5-1.53.969-2.343 1.406a27.605 27.605 0 00-8.438-.75c-2.812.188-5.343.407-7.593.657-.688-.75-1.5-1.094-2.438-1.032-.938 0-1.938.157-3 .469-1 .25-2 .531-3 .844-1 .25-1.938.312-2.813.187-.687.625-1.593 1.063-2.718 1.313a54.969 54.969 0 01-3.563.468c-.062.313 0 .532.188.657.187.125.218.375.093.75.438.562 1.032.968 1.782 1.218l2.25.563a7.394 7.394 0 012.156.844c.625.312 1.031.843 1.219 1.593 1.125.063 2.093.375 2.906.938a7.4 7.4 0 012.063 1.875c.562.75.968 1.563 1.218 2.438.25.812.344 1.562.282 2.25.25.624.5.874.75.75.312-.126.656.03 1.03.468.25.938.813 1.938 1.688 3a11.05 11.05 0 012.157 3.282c.124 1.874.218 3.562.28 5.062.126 1.5-.124 2.969-.75 4.406a23.367 23.367 0 01-4.593 7.407 36.196 36.196 0 01-6.844 5.812 57.273 57.273 0 01-7.968 4.313 79.039 79.039 0 01-8.344 3c-.25-.063-.563-.063-.938 0-.312.062-.375-.126-.187-.563a3.86 3.86 0 01-1.969.938c-.688.124-1.469.156-2.344.093-.812 0-1.656-.031-2.531-.094a10.621 10.621 0 00-2.438.094c-.5-.5-.968-1-1.406-1.5a6.849 6.849 0 01-.937-1.781C6.156 68.687 6 68.5 6 68.187c.063-.374-.063-.562-.375-.562 0-.25.031-.438.094-.563l.187-.374c.25-.188.344-.313.282-.376 0-.124-.094-.218-.282-.28a3.072 3.072 0 00-.468-.376c-.125-.125-.157-.281-.094-.469.312-.562.406-1.218.281-1.968l-.188-2.438c-.062-.812 0-1.562.188-2.25.188-.75.719-1.375 1.594-1.875 2.562.25 4.968.125 7.218-.375 2.313-.5 4.47-1.187 6.47-2.062 2.062-.875 4-1.813 5.812-2.813a118.989 118.989 0 015.437-2.906c.188-.625.469-1.156.844-1.594.438-.437.875-.843 1.313-1.218.437-.438.843-.876 1.218-1.313.375-.5.657-1.094.844-1.781.063-.25.063-.438 0-.563a.613.613 0 00-.281-.281l-.375-.375c-.125-.125-.188-.313-.188-.563l-.562-.187a.832.832 0 00-.375-.094 34.121 34.121 0 00-5.157-2.062c-1.812-.563-3.343-1.188-4.593-1.875-.75.5-1.5.625-2.25.375s-1.657-.5-2.719-.75a69.224 69.224 0 01-7.5-.75 28.767 28.767 0 01-6.75-1.969 3.285 3.285 0 00-.469-.938c-.187-.312-.625-.406-1.312-.28a12.581 12.581 0 00-1.406-1.688 13.846 13.846 0 01-1.22-1.875zM92.906 66.406c-3.812 1.688-7.875 3.063-12.187 4.125-4.313 1.063-8.906 1.75-13.781 2.063-2.626-.75-5-1.719-7.126-2.906a17.331 17.331 0 01-5.343-4.876c.062-.874.031-1.624-.094-2.25a13.67 13.67 0 00-.469-1.874 15.172 15.172 0 01-.281-1.782c0-.625.094-1.343.281-2.156a9.276 9.276 0 00-.468-1.406 9.275 9.275 0 01-.47-1.407c.126-2.374.594-4.5 1.407-6.374.813-1.938 1.813-3.688 3-5.25 1.188-1.563 2.469-3 3.844-4.313 1.437-1.375 2.812-2.688 4.125-3.938.312.313.531.376.656.188.125-.25.438-.313.938-.188 0-.312.124-.687.374-1.124.313-.5.657-.938 1.032-1.313a4.659 4.659 0 011.219-1.031c.5-.25.968-.344 1.406-.282.562-1 1.375-1.843 2.437-2.53l3.188-2.25a19.595 19.595 0 003-2.438c.875-.875 1.406-1.969 1.594-3.282h1.593c-.687-1-1-2-.937-3 .062-1 .375-1.812.937-2.437.625-.688 1.469-1.094 2.531-1.219 1.063-.187 2.282.063 3.657.75.625.125 1.031.031 1.219-.281.187-.375.5-.594.937-.656 2.375 1.062 4.5 2.344 6.375 3.844a28.762 28.762 0 015.156 5.156c-.125.312-.375.5-.75.562-.312.063-.281.282.094.657a46.645 46.645 0 014.781 7.218 72.69 72.69 0 013.938 7.969c.312 2.125.406 4.25.281 6.375-.125 2.063-.438 4.281-.938 6.656-.874 1.813-1.968 3.407-3.281 4.782a29.695 29.695 0 00-3.562 4.312l1.406 3.094c-.063.375 0 .812.187 1.312.25.5.469 1.031.657 1.594.25.5.437 1 .562 1.5.125.438.094.813-.093 1.125.187.313.531.406 1.031.281-.188.063-.344.281-.469.656-.125.313.125.407.75.282-.125.562-.375 1.187-.75 1.875a6.37 6.37 0 01-1.406 2.062 6.796 6.796 0 01-2.063 1.688c-.812.5-1.687.75-2.625.75-1.062-.563-1.906-1.094-2.531-1.594-.563-.5-1.25-1.156-2.063-1.969l-2.906-6.75zM74.625 44.094c-2.25 1.875-4.313 4.062-6.188 6.562a32.954 32.954 0 00-4.5 8.25c.5.25 1.063.407 1.688.469.688.063 1.313.156 1.875.281 3-.875 6.063-1.687 9.188-2.437a82.63 82.63 0 009.187-2.719 166.09 166.09 0 01-3.375-4.219c-1.063-1.437-1.938-2.812-2.625-4.125.188-.312.344-.687.469-1.125.125-.437.281-.843.469-1.218.187-.438.468-.813.843-1.126.375-.312.875-.468 1.5-.468.938.375 2.031.593 3.281.656 1.313.063 2.5.188 3.563.375a11.233 11.233 0 012.719 2.719c.75 1 1.531 2.031 2.344 3.093a19.034 19.034 0 002.906-3.468c.812-1.25 1.469-2.688 1.969-4.313a42.887 42.887 0 00-1.22-2.812 17.204 17.204 0 00-1.593-3c-.625-1-1.313-1.875-2.063-2.625-.75-.813-1.562-1.375-2.437-1.688-.438-.062-.719.032-.844.282-.125.187-.437.218-.937.093l-8.438 6a52.123 52.123 0 00-7.781 6.563zM167.812 17.656c.126 1.375.344 2.563.657 3.563.312 1 .656 1.968 1.031 2.906.312.875.594 1.75.844 2.625.312.813.531 1.813.656 3-.5 1.625-.875 3.125-1.125 4.5a145.79 145.79 0 01-.656 4.313c-1 2.187-1.969 4.124-2.907 5.812-.937 1.688-1.687 3.156-2.25 4.406a5.306 5.306 0 00-.843 1.125c-.188.375-.407.782-.657 1.219a8.462 8.462 0 00-.468.844c-.188.375-.344.625-.469.75l-1.875-.657-.375 2.344-1.313.375-.937 1.125c-1.187 2.063-2.437 3.813-3.75 5.25a26.581 26.581 0 01-4.5 3.75c-1.625 1.063-3.5 2.063-5.625 3A355.585 355.585 0 01136.219 71c-1.063-.125-2-.188-2.813-.188-.75-.062-1.468-.124-2.156-.187-1.188 0-2.656-.094-4.406-.281-.188-.5-.469-.844-.844-1.031-.375-.188-.719-.282-1.031-.282-1.063-.5-1.875-1.219-2.438-2.156-.5-1-1-2.063-1.5-3.188a26.178 26.178 0 00-.937-1.874 27.672 27.672 0 00-1.032-1.876l1.594-.468-2.062-2.25a1.681 1.681 0 00-.469-.469 3.757 3.757 0 01-.469-.563l-.094-1.5c-.187-4.312-.281-8.25-.281-11.812.063-3.625.563-6.844 1.5-9.656v-1.032c.188-1.374.375-2.5.563-3.374.187-.938.344-1.813.468-2.625.188-1.375.469-2.657.844-3.844.875-.188 1.532-.532 1.969-1.032a46.65 46.65 0 001.125-1.5c.875-.062 1.469.063 1.781.375.313.313.625.813.938 1.5.312.563.687 1.188 1.125 1.875.5.688 1.218 1.22 2.156 1.594.125.5.281 1.032.469 1.594.25.5.5 1.063.75 1.688.5 1.062.937 2.187 1.312 3.375.438 1.125.688 2.218.75 3.28-.625 1.188-1.125 2.563-1.5 4.126a40.104 40.104 0 00-.656 4.781 37.218 37.218 0 00.094 4.594c.187 1.437.469 2.656.843 3.656l.563 1.219 1.594-.188a54.416 54.416 0 005.062-1.593c1.563-.626 3-1.344 4.313-2.157a26.741 26.741 0 003.75-2.812 74.954 74.954 0 003.75-3.844A22.59 22.59 0 00154.219 38c1-1.875 1.812-3.813 2.437-5.813.688-2 1.188-3.968 1.5-5.906.375-2 .625-3.875.75-5.625 1.063-.375 1.594-1.125 1.594-2.25l-.188-1.031c-.25-.375-.25-.813 0-1.313.376-1.187 1.25-2.093 2.626-2.718 1 .625 1.874 1.312 2.624 2.062.813.75 1.563 1.5 2.25 2.25zM188.531 64.438c.313 1.874.188 3.343-.375 4.406-.5 1.062-1.25 1.844-2.25 2.344-.937.562-2.031.874-3.281.937-1.25.063-2.437 0-3.563-.188-.624-.874-1.187-1.968-1.687-3.28a75.894 75.894 0 01-1.406-4.032 148.867 148.867 0 01-1.219-4.219 473.213 473.213 0 00-.844-3.656c.313-.75.5-1.594.563-2.531.125-1 .187-2 .187-3 .063-1 .094-2 .094-3 .062-1.063.156-2.063.281-3a47.114 47.114 0 011.875-7.5 47.947 47.947 0 002.063-7.407 2.332 2.332 0 00-.188-1.593c-.187-.5-.219-.969-.093-1.407.062-.25.25-.406.562-.468.312-.125.5-.344.562-.657.188-.687.219-1.25.094-1.687-.062-.438.063-.969.375-1.594.313-.5.688-1.218 1.125-2.156.5-1 .688-2.031.563-3.094a10.474 10.474 0 001.593-1.312c.5-.5 1-.938 1.5-1.313a10.692 10.692 0 011.782-1.125c.687-.312 1.5-.469 2.437-.469.5.626.813 1.313.938 2.063.187.75.343 1.5.469 2.25.187.75.437 1.469.75 2.156.312.625.843 1.125 1.593 1.5v1.875c0 .75.031 1.5.094 2.25a9.98 9.98 0 00.375 1.969c.25.563.625.938 1.125 1.125-1.125 3-2.187 5.969-3.187 8.906a88.798 88.798 0 00-2.344 8.907 60.964 60.964 0 00-1.219 8.906c-.125 3 .094 6.031.656 9.093zM214.5 61.25c-.688 2.5-1.312 4.406-1.875 5.719-.5 1.25-1.281 2.562-2.344 3.937-.812-.125-1.375-.031-1.687.281a6.727 6.727 0 01-1.032.844c-.562.125-.968.125-1.218 0a2.493 2.493 0 01-.656-.469 20.21 20.21 0 00-.75-.468c-.25-.125-.657-.188-1.219-.188a9.22 9.22 0 00-.469-1.406c-.125-.438-.531-.594-1.219-.469.125-.5.157-.906.094-1.219a3.349 3.349 0 00-.281-.937 18.28 18.28 0 00-.188-.844c-.062-.312-.031-.687.094-1.125-.312 0-.562-.219-.75-.656a12.948 12.948 0 00-.656-1.313c.187-1.124.375-2.187.562-3.187.188-1 .406-1.938.656-2.813.313-.874.563-1.75.75-2.624.188-.876.094-1.782-.281-2.72.25.188.438.157.563-.093a4.95 4.95 0 00.281-1.125c.063-.5.094-.969.094-1.406 0-.5-.031-.907-.094-1.219a34.935 34.935 0 001.5-4.969c.437-1.75.813-3.468 1.125-5.156.375-1.688.75-3.344 1.125-4.969a23.762 23.762 0 011.5-4.5c.687-.125 1.437-.031 2.25.282.875.25 1.406.593 1.594 1.03a21.108 21.108 0 004.312-4.5 113.214 113.214 0 013.844-5.25 29.514 29.514 0 014.313-4.5c1.624-1.312 3.656-2.093 6.093-2.343a91.265 91.265 0 004.125 2.906 11.594 11.594 0 013.844 3.75c.5.25.906.532 1.219.844.375.25.812.531 1.312.844v1.125c.75.687 1.344 1.5 1.781 2.437.5.875.938 1.844 1.313 2.907.375 1 .75 2.03 1.125 3.093.375 1 .812 1.969 1.312 2.907-.124.312-.187.593-.187.843 0 .188.031.407.094.657.125.25.219.5.281.75.062.25.062.593 0 1.03-.188 2.75-1.094 4.97-2.719 6.657-1.562 1.688-3.469 3.094-5.719 4.219a49.338 49.338 0 01-7.218 2.718c-2.563.75-4.875 1.563-6.938 2.438 0 .25.094.375.282.375.25 0 .343.156.281.469 1.5.937 2.687 1.687 3.562 2.25a26.358 26.358 0 002.438 1.406c.812.375 1.656.719 2.531 1.031.938.25 2.219.563 3.844.938s2.875.687 3.75.937c.937.188 1.781.375 2.531.563l2.25.375c.813.062 1.937.156 3.375.281.562.563 1.031 1.25 1.406 2.063a6.61 6.61 0 01.844 2.343c.125.75.156 1.5.094 2.25-.063.688-.282 1.25-.656 1.688.062.187.187.281.374.281.25-.063.5-.063.75 0a3.36 3.36 0 00-.937.938l-.75 1.124c-.25.376-.531.688-.844.938-.312.313-.75.5-1.312.563-1.938.75-4.375.78-7.313.093-2.937-.625-6.656-1.812-11.156-3.562a157.152 157.152 0 01-5.531-2.25 61.75 61.75 0 01-3.657-1.969c-1-.688-1.937-1.406-2.812-2.156-.812-.75-1.812-1.657-3-2.719zm13.406-32.156c-.687 1-1.468 1.906-2.344 2.718a96.539 96.539 0 00-2.437 2.532c-.75.812-1.437 1.75-2.063 2.812-.624 1-1.062 2.188-1.312 3.563 2.188-.25 4.469-.844 6.844-1.782 2.375-1 4.625-1.937 6.75-2.812-.25-1.938-.938-3.5-2.063-4.688-1.062-1.187-2.187-1.968-3.375-2.343zM266.438 61.25c-.688 2.5-1.313 4.406-1.876 5.719-.5 1.25-1.281 2.562-2.343 3.937-.813-.125-1.375-.031-1.688.281a6.719 6.719 0 01-1.031.844c-.562.125-.969.125-1.219 0a2.493 2.493 0 01-.656-.469 18.65 18.65 0 00-.75-.468c-.25-.125-.656-.188-1.219-.188a9.33 9.33 0 00-.468-1.406c-.126-.438-.532-.594-1.219-.469.125-.5.156-.906.093-1.219a3.316 3.316 0 00-.281-.937 18.363 18.363 0 00-.187-.844c-.063-.312-.032-.687.094-1.125-.313 0-.563-.219-.75-.656a12.96 12.96 0 00-.657-1.313c.188-1.124.375-2.187.563-3.187.187-1 .406-1.938.656-2.813.312-.874.562-1.75.75-2.624.188-.876.094-1.782-.281-2.72.25.188.437.157.562-.093.125-.313.219-.688.281-1.125.063-.5.094-.969.094-1.406 0-.5-.031-.907-.094-1.219a34.678 34.678 0 001.5-4.969c.438-1.75.813-3.468 1.126-5.156.374-1.688.75-3.344 1.124-4.969a23.904 23.904 0 011.5-4.5c.688-.125 1.438-.031 2.25.282.876.25 1.407.593 1.594 1.03a21.112 21.112 0 004.313-4.5 113.937 113.937 0 013.843-5.25 29.514 29.514 0 014.313-4.5c1.625-1.312 3.656-2.093 6.094-2.343a91.265 91.265 0 004.125 2.906 11.604 11.604 0 013.844 3.75c.5.25.906.532 1.218.844.375.25.813.531 1.313.844v1.125a7.68 7.68 0 011.781 2.437c.5.875.938 1.844 1.312 2.907.376 1 .75 2.03 1.126 3.093.374 1 .812 1.969 1.312 2.907a2.304 2.304 0 00-.188.843c0 .188.032.407.094.657.125.25.219.5.282.75.062.25.062.593 0 1.03-.188 2.75-1.094 4.97-2.719 6.657-1.563 1.688-3.469 3.094-5.719 4.219a49.308 49.308 0 01-7.219 2.718c-2.562.75-4.875 1.563-6.937 2.438 0 .25.094.375.281.375.25 0 .344.156.281.469 1.5.937 2.688 1.687 3.563 2.25a26.351 26.351 0 002.437 1.406c.813.375 1.656.719 2.532 1.031.937.25 2.218.563 3.843.938s2.875.687 3.75.937c.938.188 1.781.375 2.531.563l2.25.375c.813.062 1.938.156 3.376.281.562.563 1.031 1.25 1.406 2.063a6.65 6.65 0 01.844 2.343c.124.75.156 1.5.093 2.25-.062.688-.281 1.25-.656 1.688.063.187.187.281.375.281.25-.063.5-.063.75 0a3.35 3.35 0 00-.938.938l-.75 1.124c-.25.376-.531.688-.843.938-.313.313-.75.5-1.313.563-1.937.75-4.375.78-7.312.093-2.938-.625-6.656-1.812-11.156-3.562a158.115 158.115 0 01-5.532-2.25 61.386 61.386 0 01-3.656-1.969c-1-.688-1.938-1.406-2.812-2.156-.813-.75-1.813-1.657-3-2.719zm13.406-32.156c-.688 1-1.469 1.906-2.344 2.718a96.556 96.556 0 00-2.438 2.532A16.34 16.34 0 00273 37.156c-.625 1-1.062 2.188-1.312 3.563 2.187-.25 4.468-.844 6.843-1.782 2.375-1 4.625-1.937 6.75-2.812-.25-1.938-.937-3.5-2.062-4.688-1.063-1.187-2.188-1.968-3.375-2.343zM355.594 18.219c.062.437.062.781 0 1.031 0 .188-.032.375-.094.563v.656c0 .187.062.5.188.937-1.313 2.125-2.844 3.594-4.594 4.407-1.688.75-3.532 1.312-5.532 1.687-2 .313-4.062.656-6.187 1.031-2.063.375-4.125 1.188-6.187 2.438-.813-.313-1.563-.313-2.25 0-.626.312-1.563.406-2.813.281a3.533 3.533 0 01-1.406.844c-.563.125-1.125.281-1.688.468.25.563.344 1.157.281 1.782 0 .562.094 1.031.282 1.406 2.187.188 4.594.156 7.218-.094 2.688-.25 5.313-.406 7.876-.468.062.312.031.53-.094.656-.125.062-.156.218-.094.468.438.313.875.72 1.312 1.22l1.313 1.312c.437.437.875.812 1.313 1.125.5.25 1.062.343 1.687.281.25.5.406 1.063.469 1.688.125.562.062 1.156-.188 1.78-1 .688-2 1.407-3 2.157-1 .688-2.062 1.313-3.187 1.875a19.178 19.178 0 01-3.469 1.406c-1.188.313-2.531.438-4.031.375h-.75c-.125 0-.313-.093-.563-.281-.5.313-1.218.406-2.156.281-.875-.125-1.562-.031-2.062.282-.688-.313-1.532-.438-2.532-.376-.937 0-1.781-.124-2.531-.374a32.497 32.497 0 00-2.719 4.218 37.082 37.082 0 00-2.156 4.782c2.125.312 3.875.437 5.25.374a72.08 72.08 0 004.031-.28 71.757 71.757 0 013.844-.47c1.313-.187 2.969-.25 4.969-.187 1.25-.688 2.718-1.125 4.406-1.313 1.75-.25 3.344-.624 4.781-1.124.5.187.938.53 1.313 1.03.375.438.718.876 1.031 1.313.375.375.75.719 1.125 1.032.375.312.844.437 1.406.374.25.25.406.563.469.938.125.313.219.625.281.938.063.312.156.593.282.843.187.188.468.25.843.188-.937 2.062-2.031 3.656-3.281 4.781a12.433 12.433 0 01-4.125 2.438c-1.563.562-3.313 1-5.25 1.312-1.875.313-3.969.688-6.281 1.125-.563.125-1.032.094-1.406-.094a4.163 4.163 0 00-1.313-.187c-1.437.312-3.156.594-5.156.844-2 .25-4.031.343-6.094.28a25.89 25.89 0 01-5.906-.843c-1.875-.438-3.407-1.25-4.594-2.438-.5-.437-.844-.937-1.031-1.5-.125-.624-.532-1.093-1.219-1.406a25.505 25.505 0 00-.375-2.719c-.188-1-.375-2.03-.562-3.093a68.414 68.414 0 01-.469-3.282c-.063-1.062 0-2.03.187-2.906a6.198 6.198 0 011.125-2.531c.625-.75.844-1.563.657-2.438.312-.062.5-.218.562-.468.062-.313.312-.438.75-.375a37.513 37.513 0 011.219-3.188c.437-1 .875-1.968 1.312-2.906.5-.938.969-1.875 1.407-2.813.5-1 .968-2.093 1.406-3.28-.875-.813-1.532-1.688-1.969-2.626-.375-1-.656-1.968-.844-2.906-.187-1-.343-2-.469-3a19.103 19.103 0 00-.656-3.188c.625-.937 1.375-1.687 2.25-2.25a13.49 13.49 0 013-1.5 25.408 25.408 0 013.469-.937c1.25-.25 2.563-.531 3.937-.844 2.5-.812 4.719-1.437 6.657-1.875 2-.437 3.937-.781 5.812-1.031 1.938-.313 3.938-.594 6-.844 2.063-.25 4.407-.625 7.031-1.125.563.563 1.094.844 1.594.844.25-.563.532-.719.844-.469.375.188.531 0 .469-.562a9.833 9.833 0 002.343 2.719 18.31 18.31 0 003.282 1.78zM378.094 69.969a133.62 133.62 0 01-5.719 1.687 23.428 23.428 0 01-6.187.844c-3.126 0-5.594-.781-7.407-2.344-.312-.687-.593-1.156-.843-1.406l-.563-.75c-.125-.313-.219-.719-.281-1.219a10.324 10.324 0 01-1.782-3 18.75 18.75 0 01-.937-3.562c-.125-1.25-.156-2.5-.094-3.75.125-1.25.344-2.438.657-3.563.124-.25.187-.5.187-.75.063-.25.125-.531.187-.843.25-1 .5-1.97.75-2.907.313-.937.719-1.75 1.219-2.437-.25-.563-.25-1.188 0-1.875.25-.688.531-1.313.844-1.875a327.97 327.97 0 002.156-6c.625-1.688 1.25-3.344 1.875-4.969a268.995 268.995 0 003-8.344c.938-2.75 1.782-5.718 2.532-8.906.5-.313.874-.531 1.124-.656.376-.125.688-.219.938-.281 1.125.562 2.438 1.124 3.938 1.687 1.5.5 2.75.75 3.75.75.5.313.812.563.937.75l.375.375a16.862 16.862 0 011.781 2.531c.5.813.657 1.907.469 3.282-.375.562-.656.843-.844.843-.312 1.25-.656 2.313-1.031 3.188a45.95 45.95 0 01-1.031 2.625 54.192 54.192 0 00-1.219 2.812c-.375.938-.687 2.094-.937 3.469-.25.313-.438.594-.563.844-.063.25-.156.531-.281.843-.125.313-.282.657-.469 1.032-.125.312-.344.593-.656.843-.188 1.626-.5 2.938-.938 3.938-.375 1-.781 2-1.219 3a96.467 96.467 0 00-2.062 5.438c-.562 1.812-.906 3.874-1.031 6.187.312-.125.593-.188.843-.188h.844c.563 0 1.219.094 1.969.282 1.875-1 3.906-1.594 6.094-1.782 2.25-.187 4.469-.312 6.656-.374h2.625c.875 0 1.688-.063 2.438-.188.562.313.906.5 1.031.563h.75c.437 0 .812.03 1.125.093.75.688 1.468 1.188 2.156 1.5.688.313 1.406.594 2.156.844.688.25 1.344.531 1.969.844a6.96 6.96 0 011.969 1.125L402 64.25c.438.563.625.938.562 1.125 0 .5-.124.875-.374 1.125l.187 1.031c-.937.188-1.594.406-1.969.656-.312.25-.625.532-.937.844a9.95 9.95 0 01-1.125.094h-.563c-.875 0-1.937.156-3.187.469a16.497 16.497 0 00-5.25-.844c-.688 0-1.406.031-2.156.094l-2.25.187c-.75.125-1.532.219-2.344.281-.75.063-1.532.094-2.344.094l-2.156.563zM403.125 28.813a8.487 8.487 0 012.063-3.375c1-.938 2.062-1.72 3.187-2.344a21.375 21.375 0 013.656-1.688 57.013 57.013 0 013.563-1.125c2.5-1.062 5.156-2.062 7.968-3 2.876-1 5.782-1.875 8.719-2.625 3-.75 6.063-1.219 9.188-1.406 3.125-.25 6.406.125 9.843 1.125.188.625.469 1.219.844 1.781l1.125 1.688a13.09 13.09 0 011.125 1.687c.313.5.5 1.032.563 1.594a7.08 7.08 0 011.5 1.875c.375.625.437 1.469.187 2.531-.625.5-1.25.969-1.875 1.407-.562.375-1.187.718-1.875 1.03a22.175 22.175 0 00-7.031-.562c-2.375.188-4.5.344-6.375.469-.562-.563-1.25-.844-2.062-.844-.75 0-1.563.125-2.438.375-.812.25-1.656.5-2.531.75-.813.25-1.594.313-2.344.188-.625.5-1.406.843-2.344 1.031-.875.125-1.843.25-2.906.375-.063.313 0 .531.187.656.188.063.219.25.094.563.375.437.844.75 1.406.937l1.876.563c.687.187 1.281.437 1.781.75.5.25.843.687 1.031 1.312.938 0 1.75.219 2.438.657.687.437 1.25.968 1.687 1.593.437.625.75 1.313.937 2.063.25.687.376 1.312.376 1.875.187.5.406.718.656.656.25-.063.531.063.844.375.187.813.656 1.656 1.406 2.531A9.727 9.727 0 01441.375 47c.125 1.563.219 2.969.281 4.219.063 1.187-.156 2.406-.656 3.656a20.066 20.066 0 01-3.938 6.188c-1.624 1.812-3.5 3.437-5.624 4.874a39.853 39.853 0 01-6.657 3.563 72.506 72.506 0 01-6.937 2.531c-.25-.062-.5-.062-.75 0-.25.063-.313-.094-.188-.469-.5.438-1.062.72-1.687.844-.563.125-1.188.156-1.875.094-.688 0-1.406-.031-2.156-.094a6.84 6.84 0 00-1.969.094A23.17 23.17 0 01408 71.187c-.312-.374-.562-.874-.75-1.5-.312 0-.469-.156-.469-.468.063-.313-.031-.469-.281-.469.375-.625.531-.969.469-1.031 0-.125-.094-.219-.281-.281l-.376-.188c-.124-.125-.156-.281-.093-.469.25-.5.343-1.062.281-1.687l-.188-2.063a6.856 6.856 0 01.094-1.968c.188-.626.656-1.126 1.406-1.5 2.126.25 4.126.187 6-.188a29.183 29.183 0 005.438-1.781 48.816 48.816 0 004.781-2.438 64.063 64.063 0 014.594-2.343c.187-.563.437-1.032.75-1.407.375-.375.75-.718 1.125-1.031a8.004 8.004 0 001.031-1.031c.313-.375.531-.844.657-1.407.062-.437-.063-.687-.376-.75-.25-.124-.374-.374-.374-.75l-1.032-.28c-1.187-.688-2.531-1.25-4.031-1.688-1.5-.5-2.781-1.032-3.844-1.594-.687.375-1.343.469-1.969.281-.562-.187-1.312-.375-2.25-.562a64.694 64.694 0 01-6.187-.657 22.426 22.426 0 01-5.625-1.687 3.651 3.651 0 00-.469-.844c-.187-.25-.531-.312-1.031-.187-.375-.5-.75-.969-1.125-1.407-.375-.5-.719-1.03-1.031-1.593.125-.75.218-1.375.281-1.875.063-.563-.125-1.094-.563-1.594.25-.813.438-1.469.563-1.969.125-.5.125-1.156 0-1.968z" fill="#000"/></svg>