<svg width="445" height="75" fill="none" xmlns="http://www.w3.org/2000/svg"><path d="M2.625 62.938c-.313.062-.594-.157-.844-.657a12.852 12.852 0 00-.843-1.593h1.03c-.437-1.376-.562-2.626-.374-3.75a44.35 44.35 0 01.843-3.376c.313-1.124.563-2.187.75-3.187.25-1.063.157-2.156-.28-3.281.312.187.53.125.655-.188.188-.375.313-.812.376-1.312a5.122 5.122 0 00.093-1.688c0-.625-.031-1.125-.093-1.5a33.397 33.397 0 001.874-6c.5-2.062.938-4.093 1.313-6.093.375-2.063.781-4.032 1.219-5.907.5-1.937 1.125-3.75 1.875-5.437.875-.125 1.781 0 2.719.375 1 .312 1.656.718 1.968 1.218 1.938-1.5 3.656-3.312 5.156-5.437 1.5-2.125 3-4.188 4.5-6.188a30.973 30.973 0 015.25-5.437C31.75 1.937 34.157 1 37.032.687c1.5 1.063 3.187 2.22 5.062 3.47a15.034 15.034 0 014.593 4.5c.5.312.97.655 1.407 1.03l1.5.938v1.406a10.067 10.067 0 012.156 2.906 19.582 19.582 0 011.594 3.47c.5 1.187.968 2.405 1.406 3.655.438 1.25.938 2.407 1.5 3.47a3.285 3.285 0 00-.188 1.03c.063.25.126.532.188.844.125.25.219.563.281.938.063.312.094.718.094 1.218-.25 3.313-1.344 6-3.281 8.063-1.875 2-4.188 3.656-6.938 4.969a66.768 66.768 0 01-8.625 3.281c-3.062.875-5.843 1.844-8.343 2.906 0 .25.125.375.375.375.312 0 .406.188.28.563 1.876 1.125 3.313 2.031 4.313 2.718a62.454 62.454 0 002.907 1.782c.937.437 1.937.812 3 1.125 1.124.312 2.656.687 4.593 1.125 1.938.437 3.438.812 4.5 1.125 1.125.25 2.125.468 3 .656.875.125 1.813.25 2.813.375 1 .125 2.343.281 4.031.469.688.687 1.25 1.5 1.688 2.437.437.938.75 1.875.937 2.813.188.937.219 1.844.094 2.719-.063.812-.313 1.468-.75 1.968.062.25.218.375.468.375a2.37 2.37 0 01.938 0 4.81 4.81 0 00-1.125 1.125l-.938 1.313a6.857 6.857 0 01-1.124 1.219c-.376.374-.876.593-1.5.656-2.25.875-5.126.906-8.626.094-3.5-.813-7.968-2.25-13.406-4.313-2.687-1-4.875-1.906-6.562-2.719-1.688-.812-3.157-1.594-4.407-2.344a38.174 38.174 0 01-3.468-2.53 333.668 333.668 0 01-3.657-3.282.563.563 0 00-.375.375c0 .188-.093.313-.28.375-.313 2.5-.813 4.531-1.5 6.094-.626 1.562-1.563 3.156-2.813 4.781-1-.188-1.688-.094-2.063.281a5.05 5.05 0 01-1.219 1.031c-.624.126-1.093.094-1.406-.093A3.669 3.669 0 017.312 71a9.879 9.879 0 00-.843-.563c-.313-.187-.813-.25-1.5-.187a45.75 45.75 0 00-.563-1.594c-.187-.562-.687-.812-1.5-.75.188-.562.25-1.031.188-1.406a4.922 4.922 0 00-.281-1.125l-.376-1.125c-.062-.375 0-.813.188-1.313zm31.313-42.844a22.98 22.98 0 01-2.72 3.281c-1 .938-2 1.938-3 3-.937 1-1.78 2.125-2.53 3.375-.75 1.188-1.282 2.625-1.594 4.313 2.625-.313 5.375-1.032 8.25-2.157a6225.51 6225.51 0 008.156-3.375c-.313-2.312-1.125-4.156-2.438-5.531-1.312-1.438-2.687-2.406-4.124-2.906z" fill="#000"/><path d="M111.656 63.125c-.375 1.063-.937 2.156-1.687 3.281a13.875 13.875 0 01-2.531 2.906c-.938.813-2 1.5-3.188 2.063a9.765 9.765 0 01-3.75.938c-.813-.188-1.375-.407-1.688-.657a9.894 9.894 0 00-.843-.562 2.367 2.367 0 00-.563-.281 1.472 1.472 0 00-.375-.282l-1.125-.469.375-1.218c.125-.5.094-.875-.094-1.125-.187-.313-.562-.719-1.124-1.219l-.563-.563a3.725 3.725 0 01-.469-.562l-1.594-1.781 2.532-.657c1.562-.437 2.594-1 3.094-1.687.562-.688.78-1.844.656-3.469-1.25-.25-2.313-.281-3.188-.093-.812.187-1.656.406-2.531.656a56.33 56.33 0 01-3.469.843c-1.125.188-2.375.282-3.75.282h-1.406a81.085 81.085 0 00-1.406-.188l-.938-.187c-.125-.688-.25-1.063-.375-1.125l-.375-.375a11.526 11.526 0 01-1.031-1.219c-.313-.563-.375-1.25-.188-2.063a4.487 4.487 0 01-.562-1.687c-.375.75-.656 1.531-.844 2.344l-.375.937-.937.188c-.125.062-.219.218-.281.468a1.542 1.542 0 00-.094.47l-.469 1.593-.375.375c-.125.063-.25.156-.375.281a16.964 16.964 0 01-.469 1.688 45.821 45.821 0 01-.562 1.593A37.5 37.5 0 0073.875 65c-.188.75-.25 1.5-.188 2.25l-.374 1.031a4.837 4.837 0 01-1.032.938l-1.125.562a2.18 2.18 0 01-.562.375 3.631 3.631 0 00-.469.188l-.281 1.031-1.125.188a95.74 95.74 0 00-1.5.28 3.95 3.95 0 01-.938.094l-.937-.093c-.688-.563-1.219-1-1.594-1.313a7.367 7.367 0 00-1.313-1.031c-.562-.75-.874-1.313-.937-1.688a32.75 32.75 0 00-.188-1.03c-.124-.376-.187-.688-.187-.938-.063-.25-.156-.438-.281-.563l-1.219-1.125 1.031-.844.094-1.593c1.25-3.188 2.563-6.25 3.938-9.188l4.406-9c.5-1 .969-2 1.406-3l1.5-3a2.077 2.077 0 01-.094-.656c0-.25.063-.531.188-.844.687-1.062 1.25-2 1.687-2.812l1.313-2.625c.5-1.063 1-2.094 1.5-3.094.562-1 1.25-2.031 2.062-3.094l1.5-.656c.188-.063.406-.125.656-.188a1.86 1.86 0 01.844-.187l1.406.188a14.342 14.342 0 004.594-3.375c1.313-1.5 2.656-3.282 4.031-5.344l.938-1.313 1.219.75c.312.188.75.375 1.312.563a25.36 25.36 0 011.781.469c1.126.25 2.188.53 3.188.843 1 .313 1.813.782 2.437 1.407.376 1 .594 1.75.657 2.25.062.5.156 1 .281 1.5.188 1.062.344 2.125.469 3.187.187 1.063.312 2.25.375 3.563.312 1.062.562 2.125.75 3.187.25 1 .468 2.031.656 3.094.312 1.5.625 2.968.938 4.406a26.187 26.187 0 001.218 3.938c.5 0 .813.03.938.093a5.34 5.34 0 01.937-.281c.375-.063.781-.125 1.219-.188l1.031-.093.375.937c.063.313.375.625.938.938.812.062 1.406.25 1.781.562.375.25.719.532 1.031.844.25.25.5.438.75.563l1.406.562-.75 1.406c-.624 1.125-1.531 2.219-2.718 3.282a16.384 16.384 0 01-3.844 2.53c.062.376.094.75.094 1.126.062.312.156.656.281 1.031.187 1.063.344 2.156.469 3.281a16.087 16.087 0 010 3.469l-.188.375zM84.562 46.906a309.14 309.14 0 005.063-.375 67.431 67.431 0 005.156-.843 378.915 378.915 0 00-1.406-5.813 173.16 173.16 0 00-1.594-6.094l-.562.938a44.13 44.13 0 00-3.656 4.406 60.04 60.04 0 00-2.907 4.594l-1.125 1.687a24.453 24.453 0 00-1.031 1.688A6.302 6.302 0 0183.531 47a5.26 5.26 0 001.031-.094z" fill="#000"/><path d="M156.844 71.188c-1 .062-2.25.03-3.75-.094-1.438-.125-2.782.094-4.032.656a63.847 63.847 0 01-10.124-1.219C135.5 69.844 132.344 69 129.469 68a26.517 26.517 0 00-1.875-1.875c-.625-.625-1.469-1.063-2.532-1.313a14.31 14.31 0 01-3.656-4.312 28.577 28.577 0 01-2.25-5.531 31.86 31.86 0 01-1.125-5.907c-.187-2.062-.25-4.03-.187-5.906.937-2.812 2.25-5.218 3.937-7.218a247.233 247.233 0 015.344-6.094c.813-.375 1.406-.75 1.781-1.125.438-.438.875-.813 1.313-1.125.5-.375.969-.719 1.406-1.032.5-.375.937-.812 1.313-1.312 1.312-.313 2.437-.75 3.374-1.313 1-.625 1.969-1.25 2.907-1.875a28.669 28.669 0 012.906-1.875c1-.562 2.156-1 3.469-1.312.5-.563 1.094-1 1.781-1.313a31.525 31.525 0 012.063-1.03c.75-.376 1.437-.75 2.062-1.126.688-.375 1.219-.875 1.594-1.5.312.5.75.688 1.312.563a45.396 45.396 0 001.594-.563c.312-.062.562 0 .75.188.25.187.469.375.656.562.188.188.344.313.469.375.187 0 .344-.156.469-.469.312 0 .406.157.281.47-.125.312-.219.53-.281.655.5-.062.906.063 1.218.376.376.25.938.406 1.688.468.25.313.312.563.188.75-.126.125-.188.375-.188.75 1.875.563 3.062 1.469 3.562 2.719.5 1.188.532 2.438.094 3.75-.437 1.313-1.218 2.531-2.344 3.656-1.124 1.125-2.343 1.875-3.656 2.25-3 .813-5.844 1.719-8.531 2.719-2.625.938-4.781 2.344-6.469 4.219-1.5.437-2.844 1.031-4.031 1.781a23.41 23.41 0 00-3.281 2.438c-1 .874-1.969 1.812-2.906 2.812a60.16 60.16 0 01-2.813 2.813c.063.874-.094 1.562-.469 2.062-.312.438-.625.906-.937 1.406.125.938.343 1.782.656 2.532.313.687.656 1.374 1.031 2.062 4.125 1.25 8.5 2.031 13.125 2.344 4.688.312 9.375.5 14.063.562.437.625.937 1.219 1.5 1.782a10.77 10.77 0 011.687 1.687 6.96 6.96 0 011.219 1.969c.312.687.375 1.562.188 2.625a23.501 23.501 0 01-2.907 2.625 103.61 103.61 0 00-3.187 2.344zM204.281 71.188c-1 .062-2.25.03-3.75-.094-1.437-.125-2.781.094-4.031.656a63.859 63.859 0 01-10.125-1.219c-3.437-.687-6.594-1.531-9.469-2.531a26.517 26.517 0 00-1.875-1.875c-.625-.625-1.469-1.063-2.531-1.313a14.295 14.295 0 01-3.656-4.312 28.451 28.451 0 01-2.25-5.531 31.696 31.696 0 01-1.125-5.907c-.188-2.062-.25-4.03-.188-5.906.938-2.812 2.25-5.218 3.938-7.218a249.31 249.31 0 015.343-6.094c.813-.375 1.407-.75 1.782-1.125a10.48 10.48 0 011.312-1.125c.5-.375.969-.719 1.406-1.032.5-.375.938-.812 1.313-1.312 1.313-.313 2.437-.75 3.375-1.313 1-.625 1.969-1.25 2.906-1.875a28.78 28.78 0 012.906-1.875c1-.562 2.157-1 3.469-1.312.5-.563 1.094-1 1.781-1.313a32.033 32.033 0 012.063-1.03c.75-.376 1.437-.75 2.063-1.126.687-.375 1.218-.875 1.593-1.5.313.5.75.688 1.313.563a46.13 46.13 0 001.594-.563c.312-.062.562 0 .75.188.25.187.468.375.656.562.187.188.344.313.468.375.188 0 .344-.156.469-.469.313 0 .407.157.281.47a9.161 9.161 0 01-.281.655c.5-.062.907.063 1.219.376.375.25.938.406 1.688.468.25.313.312.563.187.75-.125.125-.187.375-.187.75 1.874.563 3.062 1.469 3.562 2.719.5 1.188.531 2.438.094 3.75-.438 1.313-1.219 2.531-2.344 3.656-1.125 1.125-2.344 1.875-3.656 2.25-3 .813-5.844 1.719-8.532 2.719-2.624.938-4.781 2.344-6.468 4.219-1.5.437-2.844 1.031-4.032 1.781a23.528 23.528 0 00-3.281 2.438c-1 .874-1.969 1.812-2.906 2.812a59.678 59.678 0 01-2.813 2.813c.063.874-.093 1.562-.468 2.062-.313.438-.625.906-.938 1.406.125.938.344 1.782.656 2.532.313.687.657 1.374 1.032 2.062 4.125 1.25 8.5 2.031 13.125 2.344 4.687.312 9.375.5 14.062.562.438.625.938 1.219 1.5 1.782.625.5 1.188 1.062 1.688 1.687.5.563.906 1.219 1.219 1.969.312.687.374 1.562.187 2.625a23.491 23.491 0 01-2.906 2.625 103.64 103.64 0 00-3.188 2.344zM269.25 42.875c-.062.75 0 1.469.188 2.156.187.688.406 1.375.656 2.063.312.625.594 1.281.844 1.968.25.688.437 1.376.562 2.063.125.875.125 1.844 0 2.906-.125 1-.344 2-.656 3a12.6 12.6 0 01-1.219 2.625c-.5.75-1.094 1.313-1.781 1.688a9.222 9.222 0 01-3.188 2.625 18.313 18.313 0 00-3.468 2.25 7.097 7.097 0 01-2.344.937c-.813.188-1.656.375-2.532.563-.687.375-1.5.781-2.437 1.219-.937.374-1.906.75-2.906 1.124-1 .313-2 .563-3 .75-1 .126-1.875.157-2.625.094-1.875.688-3.719 1.125-5.532 1.313-1.75.25-3.812.125-6.187-.375-2.25.312-4.344.219-6.281-.281-1.875-.5-3.563-1.282-5.063-2.344a20.857 20.857 0 01-3.843-3.938 26.31 26.31 0 01-2.626-4.875c-.5-3.562-.374-6.781.376-9.656.75-2.938 1.812-5.625 3.187-8.063a42.174 42.174 0 014.875-6.843c1.812-2.125 3.562-4.188 5.25-6.188.375.125.656.125.844 0 .25-.187.468-.406.656-.656.188-.313.375-.594.562-.844.25-.25.532-.406.844-.468.438-.938 1.063-1.625 1.875-2.063a5.448 5.448 0 002.063-2.063c.562-.125 1.031-.312 1.406-.562.375-.25.719-.531 1.031-.844.375-.312.75-.593 1.125-.843a3.253 3.253 0 011.313-.657v-1.031c1.125-.5 1.937-1.063 2.437-1.688.563-.687 1.219-1.5 1.969-2.437.563-.063 1-.094 1.313-.094.374 0 .906-.062 1.593-.187.5-.875.938-1.531 1.313-1.969.437-.438 1.062-.906 1.875-1.406a7.91 7.91 0 002.437.75c.938.125 1.75.531 2.438 1.219.062.624.25 1.124.562 1.5.313.312.656.624 1.032.937.374.25.718.531 1.031.844.375.312.625.75.75 1.312.25.063.406.032.469-.093.124-.125.312-.157.562-.094.188.875.406 1.468.656 1.781.25.25.5.781.75 1.594a10.736 10.736 0 00-.75 1.968c-.125.625-.5 1.094-1.125 1.407-.062.437.063.687.375.75.313 0 .5.156.563.468.062.563-.031.97-.281 1.22a60.915 60.915 0 014.031 7.78 63.93 63.93 0 004.031 7.688zm-11.719 8.906c.25-.687.563-1.25.938-1.687.437-.438.687-1.094.75-1.969-.313-.5-.5-.875-.563-1.125-.062-.313-.094-.781-.094-1.406A37.939 37.939 0 01255 39.406c-1-2.25-2.125-4.343-3.375-6.281-.125.25-.344.5-.656.75-.313.25-.657.188-1.031-.188-.126.5-.344.876-.657 1.126a1.965 1.965 0 01-1.031.28 11.172 11.172 0 01-1.219-.28 5.768 5.768 0 01-1.031-.657 315.34 315.34 0 01-5.438 4.219 27.138 27.138 0 00-4.874 4.781c-.25.125-.407.188-.469.188-.063-.063-.25-.032-.563.093a15.41 15.41 0 01-1.875 3.282c-.687.937-1.375 1.906-2.062 2.906-.688 1-1.281 2.063-1.781 3.188-.5 1.124-.782 2.437-.844 3.937 1.062.875 2.312 1.406 3.75 1.594 1.437.187 2.906.218 4.406.093a49.184 49.184 0 004.5-.562c1.5-.313 2.875-.469 4.125-.469 2.625-.625 4.875-1.437 6.75-2.437a169.001 169.001 0 015.906-3.188zM329.625 42.875c-.063.75 0 1.469.187 2.156.188.688.407 1.375.657 2.063.312.625.593 1.281.843 1.968.25.688.438 1.376.563 2.063.125.875.125 1.844 0 2.906-.125 1-.344 2-.656 3A12.6 12.6 0 01330 59.656c-.5.75-1.094 1.313-1.781 1.688a9.222 9.222 0 01-3.188 2.625 18.353 18.353 0 00-3.469 2.25 7.083 7.083 0 01-2.343.937c-.813.188-1.657.375-2.531.563-.688.375-1.5.781-2.438 1.219-.938.374-1.906.75-2.906 1.124-1 .313-2 .563-3 .75-1 .126-1.875.157-2.625.094-1.875.688-3.719 1.125-5.531 1.313-1.75.25-3.813.125-6.188-.375-2.25.312-4.344.219-6.281-.281-1.875-.5-3.563-1.282-5.063-2.344a20.923 20.923 0 01-3.844-3.938 26.299 26.299 0 01-2.624-4.875c-.5-3.562-.376-6.781.374-9.656.75-2.938 1.813-5.625 3.188-8.063a42.174 42.174 0 014.875-6.843c1.813-2.125 3.563-4.188 5.25-6.188.375.125.656.125.844 0 .25-.187.469-.406.656-.656.187-.313.375-.594.563-.844.25-.25.531-.406.843-.468.438-.938 1.063-1.625 1.875-2.063a5.448 5.448 0 002.063-2.063c.562-.125 1.031-.312 1.406-.562.375-.25.719-.531 1.031-.844.375-.312.75-.593 1.125-.843a3.253 3.253 0 011.313-.657v-1.031c1.125-.5 1.937-1.063 2.437-1.688.563-.687 1.219-1.5 1.969-2.437.562-.063 1-.094 1.312-.094.376 0 .907-.062 1.594-.187.5-.875.938-1.531 1.313-1.969.437-.438 1.062-.906 1.875-1.406a7.91 7.91 0 002.437.75c.938.125 1.75.531 2.438 1.219.062.624.25 1.124.562 1.5.313.312.657.624 1.031.937.376.25.719.531 1.032.844.375.312.625.75.75 1.312.25.063.406.032.468-.093.126-.125.313-.157.563-.094.187.875.406 1.468.656 1.781.25.25.5.781.75 1.594a10.736 10.736 0 00-.75 1.968c-.125.625-.5 1.094-1.125 1.407-.062.437.063.687.375.75.313 0 .5.156.563.468.062.563-.032.97-.282 1.22a60.92 60.92 0 014.032 7.78 63.93 63.93 0 004.031 7.688zm-11.719 8.906c.25-.687.563-1.25.938-1.687.437-.438.687-1.094.75-1.969-.313-.5-.5-.875-.563-1.125-.062-.313-.093-.781-.093-1.406a37.798 37.798 0 01-3.563-6.188c-1-2.25-2.125-4.343-3.375-6.281-.125.25-.344.5-.656.75-.313.25-.656.188-1.032-.188-.124.5-.343.876-.656 1.126a1.965 1.965 0 01-1.031.28 11.172 11.172 0 01-1.219-.28 5.804 5.804 0 01-1.031-.657 323.202 323.202 0 01-5.437 4.219 27.149 27.149 0 00-4.876 4.781c-.25.125-.406.188-.468.188-.063-.063-.25-.032-.563.093a15.41 15.41 0 01-1.875 3.282c-.687.937-1.375 1.906-2.062 2.906a19.79 19.79 0 00-1.782 3.188c-.5 1.124-.781 2.437-.843 3.937 1.062.875 2.312 1.406 3.75 1.594 1.437.187 2.906.218 4.406.093a49.096 49.096 0 004.5-.562c1.5-.313 2.875-.469 4.125-.469 2.625-.625 4.875-1.437 6.75-2.437a169.001 169.001 0 015.906-3.188zM354.562 53.938c-.562.124-.968.468-1.218 1.03-.25.5-.5 1.032-.75 1.594a12.217 12.217 0 01-.656 1.594c-.188.438-.5.657-.938.657-.062.5-.25.937-.562 1.312-.25.375-.5.781-.75 1.219-.25.375-.438.812-.563 1.312-.125.438-.063.969.187 1.594-.5.375-.812.906-.937 1.594a18.033 18.033 0 01-.469 1.969c-.125.624-.375 1.156-.75 1.593-.375.438-1.062.625-2.062.563-.188.25-.219.406-.094.469.125.062.219.28.281.656-.687-.125-1.219-.094-1.593.094-.313.25-.719.406-1.219.468a6.47 6.47 0 01-3-1.969 22.188 22.188 0 01-2.063-3.093 89.73 89.73 0 01-1.594-3.563 30.527 30.527 0 00-1.312-3.093c.188-.688.219-1.344.094-1.97-.125-.687-.344-1.25-.656-1.687 3.062-6.5 6.406-13.437 10.031-20.812a750.723 750.723 0 0010.312-21.844 36.797 36.797 0 014.219 1.969c1.438.687 2.719 1.5 3.844 2.437a13.626 13.626 0 013 3.282c.812 1.187 1.344 2.53 1.594 4.03-.126.376-.282.532-.469.47-.125-.125-.25-.094-.375.093.25.313.375.532.375.657a.401.401 0 010 .375v.562c0 .188.093.469.281.844-.25-.063-.438-.032-.562.093-.063.125-.25.125-.563 0 .25.688.313 1.25.187 1.688a3.956 3.956 0 01-.374 1.219 4.663 4.663 0 00-.469 1.125c-.125.375-.094.875.093 1.5a.635.635 0 00-.468.187 1.093 1.093 0 00-.188.282l-.281.28c-.063.063-.187.063-.375 0 .188 1.376.25 2.75.188 4.126-.063 1.375-.126 2.781-.188 4.218 0 1.376.031 2.844.094 4.407.062 1.5.281 3.062.656 4.687 2.25-1.312 4.031-3 5.344-5.062 1.375-2.063 2.468-4.375 3.281-6.938.875-2.562 1.531-5.312 1.969-8.25.437-2.937.906-5.937 1.406-9 .562-.562 1-1.25 1.312-2.062.313-.813.594-1.657.844-2.532.25-.937.5-1.843.75-2.718.25-.938.563-1.781.938-2.531.937.124 1.718.437 2.344.937.687.438 1.312.938 1.874 1.5.563.5 1.157 1 1.782 1.5.625.438 1.406.719 2.344.844a66.36 66.36 0 012.062 3.093 8.657 8.657 0 011.219 3.188 6.878 6.878 0 00-.75 1.688c-.125.625-.281 1.25-.469 1.875a9.016 9.016 0 01-.75 1.78c-.312.5-.75.938-1.312 1.313a42.426 42.426 0 01-.75 4.5 89.18 89.18 0 01-.844 3.938 71.007 71.007 0 00-.656 4.125c-.188 1.375-.25 2.906-.188 4.593l-1.594 4.594c-.562 1.625-1 3.094-1.312 4.407A8.752 8.752 0 00381 59.843a87.128 87.128 0 01-1.781 3.375c-.25.25-.407.312-.469.187s-.281-.218-.656-.281c.062.25.062.438 0 .563-.063.124-.156.25-.282.374-.062.063-.124.188-.187.376 0 .187.063.437.187.75a7.431 7.431 0 00-2.343 1.593 16.32 16.32 0 01-2.25 1.875c-.75.563-1.688.938-2.813 1.125-1.062.188-2.468-.031-4.218-.656a37.306 37.306 0 01-6.844-6.469c-1.938-2.437-3.532-5.343-4.782-8.718zM391.031 28.813c.438-1.313 1.125-2.438 2.063-3.375 1-.938 2.062-1.72 3.187-2.344a21.42 21.42 0 013.657-1.688 57.127 57.127 0 013.562-1.125c2.5-1.062 5.156-2.062 7.969-3 2.875-1 5.781-1.875 8.719-2.625 3-.75 6.062-1.219 9.187-1.406 3.125-.25 6.406.125 9.844 1.125.187.625.469 1.219.843 1.781l1.126 1.688c.437.562.812 1.125 1.124 1.687.313.5.5 1.032.563 1.594a7.08 7.08 0 011.5 1.875c.375.625.437 1.469.187 2.531-.624.5-1.25.969-1.874 1.407-.563.375-1.188.718-1.876 1.03-2.312-.562-4.656-.75-7.031-.562-2.375.188-4.5.344-6.375.469-.562-.563-1.25-.844-2.062-.844-.75 0-1.563.125-2.438.375-.812.25-1.656.5-2.531.75-.813.25-1.594.313-2.344.188-.625.5-1.406.843-2.343 1.031-.876.125-1.844.25-2.907.375-.062.313 0 .531.188.656.187.063.219.25.093.563.376.437.844.75 1.407.937l1.875.563c.687.187 1.281.437 1.781.75.5.25.844.687 1.031 1.312.938 0 1.75.219 2.438.657.687.437 1.25.968 1.687 1.593a6.18 6.18 0 01.938 2.063c.25.687.375 1.312.375 1.875.187.5.406.718.656.656.25-.063.531.063.844.375.187.813.656 1.656 1.406 2.531A9.728 9.728 0 01429.281 47c.125 1.563.219 2.969.281 4.219.063 1.187-.156 2.406-.656 3.656a20.063 20.063 0 01-3.937 6.188 30.344 30.344 0 01-5.625 4.874 39.882 39.882 0 01-6.656 3.563 72.593 72.593 0 01-6.938 2.531c-.25-.062-.5-.062-.75 0-.25.063-.312-.094-.188-.469-.5.438-1.062.72-1.687.844-.563.125-1.187.156-1.875.094-.688 0-1.406-.031-2.156-.094a6.843 6.843 0 00-1.969.094 23.544 23.544 0 01-1.219-1.313c-.312-.374-.562-.874-.75-1.5-.312 0-.468-.156-.468-.468.062-.313-.032-.469-.282-.469.375-.625.532-.969.469-1.031 0-.125-.094-.219-.281-.281l-.375-.188c-.125-.125-.157-.281-.094-.469.25-.5.344-1.062.281-1.687l-.187-2.063a6.857 6.857 0 01.093-1.968c.188-.626.657-1.126 1.407-1.5 2.125.25 4.125.187 6-.188a29.172 29.172 0 005.437-1.781 48.835 48.835 0 004.782-2.438 63.838 63.838 0 014.593-2.343c.188-.563.438-1.032.75-1.407.375-.375.75-.718 1.125-1.031a8.075 8.075 0 001.032-1.031c.312-.375.531-.844.656-1.407.062-.437-.063-.687-.375-.75-.25-.124-.375-.374-.375-.75l-1.032-.28c-1.187-.688-2.531-1.25-4.031-1.688-1.5-.5-2.781-1.032-3.843-1.594-.688.375-1.344.469-1.969.281-.563-.187-1.313-.375-2.25-.562a64.681 64.681 0 01-6.188-.657 22.439 22.439 0 01-5.625-1.687 3.686 3.686 0 00-.468-.844c-.188-.25-.532-.312-1.032-.187-.375-.5-.75-.969-1.125-1.407-.375-.5-.719-1.03-1.031-1.593.125-.75.219-1.375.281-1.875.063-.563-.125-1.094-.562-1.594.25-.813.437-1.469.562-1.969.125-.5.125-1.156 0-1.968z" fill="#000"/></svg>